<svg width="591" height="672" viewBox="0 0 591 672" fill="none" xmlns="http://www.w3.org/2000/svg">
<path d="M1 242H590V643C590 659.016 577.016 672 561 672H27C12.6406 672 1 660.359 1 646L1 242Z" fill="#FF6612"/>
<path fill-rule="evenodd" clip-rule="evenodd" d="M152.476 15H113.106C110.345 15 108.106 17.2386 108.106 20V87.3071H157.476V20C157.476 17.2386 155.238 15 152.476 15ZM172.476 87.3071V20C172.476 8.9543 163.522 0 152.476 0H113.106C102.061 0 93.1063 8.95431 93.1063 20V87.3071H30.5079C13.9393 87.3071 0.507874 100.739 0.507874 117.307V642C0.507874 658.569 13.9393 672 30.5079 672H560.492C577.061 672 590.492 658.569 590.492 642V117.307C590.492 100.739 577.061 87.3071 560.492 87.3071H503.185V20C503.185 8.9543 494.231 0 483.185 0H443.815C432.769 0 423.815 8.95431 423.815 20V87.3071H172.476ZM157.476 102.307H108.106V165.197C108.106 167.958 110.345 170.197 113.106 170.197H152.476C155.238 170.197 157.476 167.958 157.476 165.197V102.307ZM93.1063 102.307V165.197C93.1063 176.243 102.061 185.197 113.106 185.197H152.476C163.522 185.197 172.476 176.243 172.476 165.197V102.307H423.815V165.197C423.815 176.243 432.769 185.197 443.815 185.197H483.185C494.231 185.197 503.185 176.243 503.185 165.197V102.307H560.492C568.776 102.307 575.492 109.023 575.492 117.307V235.055H15.5079V117.307C15.5079 109.023 22.2236 102.307 30.5079 102.307H93.1063ZM488.185 87.3071V20C488.185 17.2386 485.946 15 483.185 15H443.815C441.054 15 438.815 17.2386 438.815 20V87.3071H488.185ZM438.815 102.307H488.185V165.197C488.185 167.958 485.946 170.197 483.185 170.197H443.815C441.054 170.197 438.815 167.958 438.815 165.197V102.307ZM15.5079 642V250.055H575.492V642C575.492 650.284 568.776 657 560.492 657H30.5079C22.2236 657 15.5079 650.284 15.5079 642Z" fill="#62637C"/>
<path fill-rule="evenodd" clip-rule="evenodd" d="M287.52 288C287.52 285.239 289.758 283 292.52 283H297.434C300.196 283 302.434 285.239 302.434 288V337.657C302.434 340.419 300.196 342.657 297.434 342.657H292.52C289.758 342.657 287.52 340.419 287.52 337.657V288ZM419.17 334.725C417.218 332.772 414.052 332.772 412.099 334.725L376.986 369.838C375.034 371.79 375.034 374.956 376.986 376.909L380.461 380.384C382.414 382.336 385.58 382.336 387.532 380.384L422.645 345.271C424.598 343.318 424.598 340.152 422.645 338.2L419.17 334.725ZM166.77 339.725C164.817 341.677 164.817 344.843 166.77 346.796L201.883 381.909C203.835 383.861 207.001 383.861 208.954 381.909L212.429 378.434C214.381 376.481 214.381 373.315 212.429 371.363L177.316 336.25C175.363 334.297 172.197 334.297 170.245 336.25L166.77 339.725ZM359.52 457C359.52 492.646 330.623 521.543 294.977 521.543C259.331 521.543 230.434 492.646 230.434 457C230.434 421.354 259.331 392.457 294.977 392.457C330.623 392.457 359.52 421.354 359.52 457ZM374.52 457C374.52 500.93 338.907 536.543 294.977 536.543C251.047 536.543 215.434 500.93 215.434 457C215.434 413.07 251.047 377.457 294.977 377.457C338.907 377.457 374.52 413.07 374.52 457ZM125.977 464.477C123.216 464.466 120.986 462.218 120.997 459.457L121.017 454.543C121.028 451.781 123.275 449.552 126.037 449.563L175.693 449.761C178.455 449.772 180.684 452.02 180.673 454.781L180.654 459.695C180.643 462.457 178.395 464.686 175.634 464.675L125.977 464.477ZM206.468 527.65C204.515 525.697 201.35 525.697 199.397 527.65L164.284 562.763C162.331 564.715 162.331 567.881 164.284 569.834L167.759 573.309C169.712 575.261 172.877 575.261 174.83 573.309L209.943 538.196C211.896 536.243 211.896 533.077 209.943 531.125L206.468 527.65ZM287.52 576.343C287.52 573.581 289.758 571.343 292.52 571.343H297.434C300.196 571.343 302.434 573.581 302.434 576.343V626C302.434 628.761 300.196 631 297.434 631H292.52C289.758 631 287.52 628.761 287.52 626V576.343ZM380.541 531.125C378.588 533.077 378.588 536.243 380.541 538.196L415.654 573.309C417.606 575.261 420.772 575.261 422.725 573.309L426.2 569.834C428.152 567.881 428.152 564.715 426.2 562.763L391.087 527.65C389.134 525.697 385.968 525.697 384.016 527.65L380.541 531.125ZM414.32 464.477C411.558 464.466 409.329 462.218 409.34 459.457L409.359 454.543C409.37 451.781 411.618 449.552 414.379 449.563L464.036 449.761C466.797 449.772 469.027 452.02 469.016 454.781L468.996 459.695C468.985 462.457 466.738 464.686 463.977 464.675L414.32 464.477ZM391.834 457C391.834 510.493 348.47 553.857 294.977 553.857C241.484 553.857 198.12 510.493 198.12 457C198.12 403.507 241.484 360.143 294.977 360.143C348.47 360.143 391.834 403.507 391.834 457ZM406.834 457C406.834 518.777 356.754 568.857 294.977 568.857C233.2 568.857 183.12 518.777 183.12 457C183.12 395.223 233.2 345.143 294.977 345.143C356.754 345.143 406.834 395.223 406.834 457Z" fill="white"/>
</svg>
